<svg width="18" height="18" viewBox="0 0 18 18" fill="none" xmlns="http://www.w3.org/2000/svg">
<path d="M15.1875 13.5C14.9369 13.5011 14.6899 13.5588 14.4647 13.6688L12.0459 11.25H10.125V12.375H11.5796L13.6693 14.4647C13.5593 14.6899 13.5014 14.9369 13.5 15.1875C13.5 15.5213 13.599 15.8475 13.7844 16.125C13.9698 16.4025 14.2334 16.6188 14.5417 16.7465C14.8501 16.8743 15.1894 16.9077 15.5167 16.8426C15.8441 16.7775 16.1447 16.6167 16.3807 16.3807C16.6167 16.1447 16.7775 15.8441 16.8426 15.5167C16.9077 15.1894 16.8743 14.8501 16.7465 14.5417C16.6188 14.2334 16.4025 13.9698 16.125 13.7844C15.8475 13.599 15.5213 13.5 15.1875 13.5ZM15.1875 15.75C15.0762 15.75 14.9675 15.717 14.875 15.6552C14.7825 15.5934 14.7104 15.5055 14.6678 15.4028C14.6252 15.3 14.6141 15.1869 14.6358 15.0778C14.6575 14.9686 14.7111 14.8684 14.7898 14.7898C14.8684 14.7111 14.9686 14.6575 15.0778 14.6358C15.1869 14.6141 15.3 14.6252 15.4028 14.6678C15.5055 14.7104 15.5934 14.7825 15.6552 14.875C15.717 14.9675 15.75 15.0762 15.75 15.1875C15.75 15.3367 15.6907 15.4798 15.5852 15.5852C15.4798 15.6907 15.3367 15.75 15.1875 15.75ZM15.1875 7.3125C14.8396 7.31353 14.5006 7.42223 14.217 7.62366C13.9334 7.8251 13.7191 8.10939 13.6035 8.4375H10.125V9.5625H13.6035C13.7071 9.85341 13.8887 10.1102 14.1284 10.3049C14.3682 10.4996 14.6568 10.6247 14.9628 10.6664C15.2687 10.7082 15.5803 10.665 15.8634 10.5416C16.1465 10.4183 16.3903 10.2195 16.5681 9.96699C16.7458 9.71447 16.8508 9.41795 16.8714 9.10982C16.8921 8.8017 16.8276 8.49382 16.6851 8.21985C16.5426 7.94587 16.3276 7.71633 16.0635 7.55631C15.7993 7.39629 15.4963 7.31195 15.1875 7.3125V7.3125ZM15.1875 9.5625C15.0762 9.5625 14.9675 9.52951 14.875 9.4677C14.7825 9.40589 14.7104 9.31804 14.6678 9.21526C14.6252 9.11248 14.6141 8.99938 14.6358 8.89026C14.6575 8.78115 14.7111 8.68092 14.7898 8.60225C14.8684 8.52359 14.9686 8.47001 15.0778 8.44831C15.1869 8.4266 15.3 8.43774 15.4028 8.48032C15.5055 8.52289 15.5934 8.59499 15.6552 8.68749C15.717 8.77999 15.75 8.88875 15.75 9C15.75 9.14918 15.6907 9.29226 15.5852 9.39775C15.4798 9.50324 15.3367 9.5625 15.1875 9.5625ZM15.1875 1.125C14.7401 1.12545 14.3111 1.30338 13.9948 1.61975C13.6784 1.93612 13.5004 2.36508 13.5 2.8125C13.5019 3.08197 13.5691 3.34696 13.6957 3.58481L11.5853 5.625H10.125V6.75H12.0397L14.5148 4.35825C14.7447 4.45851 14.994 4.50623 15.2447 4.49796C15.4954 4.48968 15.7411 4.42561 15.9639 4.3104C16.1867 4.1952 16.381 4.03176 16.5326 3.83199C16.6843 3.63222 16.7895 3.40114 16.8406 3.15558C16.8917 2.91002 16.8874 2.65616 16.828 2.41247C16.7686 2.16879 16.6556 1.94141 16.4973 1.7469C16.3389 1.55239 16.1392 1.39564 15.9126 1.28806C15.686 1.18047 15.4383 1.12477 15.1875 1.125ZM15.1875 3.375C15.0762 3.375 14.9675 3.34201 14.875 3.2802C14.7825 3.21839 14.7104 3.13054 14.6678 3.02776C14.6252 2.92498 14.6141 2.81188 14.6358 2.70276C14.6575 2.59365 14.7111 2.49342 14.7898 2.41475C14.8684 2.33609 14.9686 2.28251 15.0778 2.26081C15.1869 2.2391 15.3 2.25024 15.4028 2.29282C15.5055 2.33539 15.5934 2.40749 15.6552 2.49999C15.717 2.5925 15.75 2.70125 15.75 2.8125C15.75 2.96168 15.6907 3.10476 15.5852 3.21025C15.4798 3.31574 15.3367 3.375 15.1875 3.375Z" fill="#464646"/>
<path d="M10.125 3.375H11.25V2.25H10.125C9.80444 2.25107 9.48786 2.32104 9.19671 2.45516C8.90555 2.58929 8.64664 2.78443 8.4375 3.02737C8.22836 2.78443 7.96945 2.58929 7.67829 2.45516C7.38714 2.32104 7.07056 2.25107 6.75 2.25H6.1875C4.8453 2.25149 3.5585 2.78534 2.60942 3.73442C1.66034 4.6835 1.12649 5.9703 1.125 7.3125V10.6875C1.12649 12.0297 1.66034 13.3165 2.60942 14.2656C3.5585 15.2147 4.8453 15.7485 6.1875 15.75H6.75C7.07056 15.7489 7.38714 15.679 7.67829 15.5448C7.96945 15.4107 8.22836 15.2156 8.4375 14.9726C8.64664 15.2156 8.90555 15.4107 9.19671 15.5448C9.48786 15.679 9.80444 15.7489 10.125 15.75H11.25V14.625H10.125C9.82672 14.6247 9.54075 14.5061 9.32983 14.2952C9.11892 14.0843 9.0003 13.7983 9 13.5V4.5C9.0003 4.20172 9.11892 3.91575 9.32983 3.70483C9.54075 3.49392 9.82672 3.3753 10.125 3.375V3.375ZM6.75 14.625H6.1875C5.24162 14.6233 4.32792 14.2814 3.61326 13.6618C2.89861 13.0421 2.4307 12.1861 2.295 11.25H3.375V10.125H2.25V7.875H3.9375C4.38492 7.87455 4.81388 7.69662 5.13025 7.38025C5.44662 7.06388 5.62455 6.63492 5.625 6.1875V5.0625H4.5V6.1875C4.5 6.33668 4.44074 6.47976 4.33525 6.58525C4.22976 6.69074 4.08668 6.75 3.9375 6.75H2.295C2.4307 5.81391 2.89861 4.95786 3.61326 4.33822C4.32792 3.71858 5.24162 3.37669 6.1875 3.375H6.75C7.04828 3.3753 7.33425 3.49392 7.54517 3.70483C7.75608 3.91575 7.8747 4.20172 7.875 4.5V6.75H6.75V7.875H7.875V10.125H6.75C6.30258 10.1254 5.87362 10.3034 5.55725 10.6198C5.24088 10.9361 5.06295 11.3651 5.0625 11.8125V12.9375H6.1875V11.8125C6.1875 11.6633 6.24676 11.5202 6.35225 11.4148C6.45774 11.3093 6.60082 11.25 6.75 11.25H7.875V13.5C7.8747 13.7983 7.75608 14.0843 7.54517 14.2952C7.33425 14.5061 7.04828 14.6247 6.75 14.625V14.625Z" fill="#464646"/>
</svg>
