<svg width="16" height="16" viewBox="0 0 16 16" fill="none" xmlns="http://www.w3.org/2000/svg">
<g clip-path="url(#clip0_93_200)">
<rect width="16" height="16" rx="2" fill="#E547FF"/>
<path d="M12.5853 2.928C12.6706 2.928 12.7186 2.98133 12.7293 3.088C12.7506 3.184 12.7613 3.28 12.7613 3.376L12.7453 3.488C12.7346 3.552 12.7186 3.63733 12.6973 3.744C12.6759 3.84 12.6493 3.94667 12.6173 4.064C12.5959 4.18133 12.5639 4.288 12.5213 4.384C12.3719 4.85333 12.2493 5.31733 12.1533 5.776C12.0679 6.23467 11.9986 6.69867 11.9453 7.168C11.8919 7.62667 11.8493 8.09067 11.8173 8.56C11.7853 9.02933 11.7533 9.504 11.7213 9.984C11.7639 9.54667 11.8013 9.088 11.8333 8.608C11.8759 8.128 11.9293 7.648 11.9933 7.168C12.0573 6.67733 12.1373 6.20267 12.2333 5.744C12.3399 5.27467 12.4839 4.83733 12.6653 4.432C12.5053 5.456 12.3719 6.47467 12.2653 7.488C12.1693 8.50133 12.0893 9.52533 12.0253 10.56L11.8333 10.656C11.8333 11.3067 11.7693 11.9307 11.6413 12.528C11.5133 13.1147 11.3693 13.7227 11.2093 14.352C11.1559 14.352 11.0919 14.352 11.0173 14.352C10.9533 14.3627 10.8893 14.368 10.8253 14.368C10.7719 14.368 10.6973 14.352 10.6013 14.32C10.5053 14.288 10.4039 14.2453 10.2973 14.192C10.1906 14.1493 10.0786 14.096 9.96125 14.032C9.85458 13.9787 9.76392 13.9253 9.68925 13.872C9.23058 13.5733 8.81992 13.2053 8.45725 12.768C8.09458 12.32 7.76925 11.8293 7.48125 11.296C7.19325 10.7627 6.93725 10.2027 6.71325 9.616C6.48925 9.01867 6.27592 8.42133 6.07325 7.824C5.88125 7.22667 5.69458 6.64533 5.51325 6.08C5.33192 5.504 5.15058 4.976 4.96925 4.496L4.87325 4.576C5.05458 5.10933 5.23058 5.69067 5.40125 6.32C5.58258 6.93867 5.76925 7.57333 5.96125 8.224C6.16392 8.864 6.38792 9.49867 6.63325 10.128C6.88925 10.7573 7.18258 11.344 7.51325 11.888C7.85458 12.432 8.24925 12.9173 8.69725 13.344C9.14525 13.76 9.66792 14.0853 10.2653 14.32C9.75325 14.1813 9.29458 13.9467 8.88925 13.616C8.49458 13.2747 8.13192 12.8747 7.80125 12.416C7.48125 11.9573 7.19325 11.4613 6.93725 10.928C6.69192 10.384 6.46792 9.83467 6.26525 9.28C6.06258 8.72533 5.88125 8.18133 5.72125 7.648C5.56125 7.11467 5.41192 6.62933 5.27325 6.192C5.27325 6.64 5.29458 7.07733 5.33725 7.504C5.39058 7.93067 5.41725 8.36267 5.41725 8.8C5.41725 9.536 5.43858 10.2773 5.48125 11.024C5.52392 11.76 5.56658 12.496 5.60925 13.232L5.25725 13.296C5.17192 13.296 5.10792 13.2267 5.06525 13.088C5.02258 12.9387 4.99058 12.7733 4.96925 12.592C4.94792 12.4107 4.93192 12.24 4.92125 12.08C4.92125 11.9093 4.92125 11.8027 4.92125 11.76H4.72925C4.72925 11.8453 4.72392 12.016 4.71325 12.272C4.71325 12.5173 4.69725 12.7733 4.66525 13.04C4.63325 13.3067 4.57992 13.5467 4.50525 13.76C4.44125 13.9733 4.34525 14.08 4.21725 14.08C4.13192 14.08 4.05192 13.9413 3.97725 13.664C3.90258 13.376 3.82792 13.0027 3.75325 12.544C3.67858 12.0747 3.60925 11.5467 3.54525 10.96C3.48125 10.3627 3.42792 9.76 3.38525 9.152C3.34258 8.544 3.30525 7.952 3.27325 7.376C3.25192 6.8 3.24125 6.29333 3.24125 5.856C3.24125 5.29067 3.27858 4.73067 3.35325 4.176C3.43858 3.62133 3.57192 3.072 3.75325 2.528L5.51325 2.192C5.56658 2.26667 5.61458 2.336 5.65725 2.4C5.69992 2.45333 5.74792 2.512 5.80125 2.576C6.11058 3.024 6.37725 3.51467 6.60125 4.048C6.82525 4.57067 7.02792 5.12 7.20925 5.696C7.39058 6.26133 7.56125 6.83733 7.72125 7.424C7.89192 8 8.07858 8.56533 8.28125 9.12C8.48392 9.664 8.71858 10.1813 8.98525 10.672C9.25192 11.1627 9.57725 11.6 9.96125 11.984C10.0039 11.6747 10.0413 11.264 10.0733 10.752C10.1159 10.24 10.1586 9.69067 10.2013 9.104C10.2546 8.51733 10.3079 7.93067 10.3612 7.344C10.4146 6.74667 10.4786 6.208 10.5533 5.728C10.6386 5.23733 10.7346 4.84267 10.8413 4.544C10.9586 4.23467 11.0919 4.08 11.2413 4.08L11.3373 4.144C11.1133 4.80533 10.9586 5.472 10.8733 6.144C10.7986 6.816 10.7399 7.49333 10.6973 8.176C10.6653 8.85867 10.6226 9.54133 10.5693 10.224C10.5266 10.896 10.4253 11.5627 10.2653 12.224L10.3612 12.272C10.3719 12.176 10.3826 12.08 10.3933 11.984C10.4039 11.8773 10.4199 11.776 10.4413 11.68C10.5266 11.0613 10.5853 10.4427 10.6173 9.824C10.6599 9.19467 10.7026 8.56533 10.7453 7.936C10.7986 7.30667 10.8679 6.68267 10.9533 6.064C11.0493 5.44533 11.1933 4.83733 11.3853 4.24L11.5453 4.352C11.6093 4.30933 11.6679 4.21333 11.7213 4.064C11.7746 3.904 11.8386 3.744 11.9133 3.584C11.9879 3.41333 12.0786 3.264 12.1853 3.136C12.2919 2.99733 12.4253 2.928 12.5853 2.928ZM10.9533 14.224C11.0706 13.84 11.1773 13.456 11.2733 13.072C11.3693 12.688 11.4439 12.2933 11.4973 11.888C11.4333 12.272 11.3479 12.6507 11.2413 13.024C11.1453 13.3867 11.0493 13.7547 10.9533 14.128C10.3133 13.904 9.79058 13.6587 9.38525 13.392C8.99058 13.1253 8.65458 12.8213 8.37725 12.48C8.11058 12.1387 7.87058 11.7547 7.65725 11.328C7.48658 10.9973 7.29992 10.6293 7.09725 10.224C7.22525 10.4907 7.33725 10.736 7.43325 10.96C7.58258 11.2693 7.72658 11.5573 7.86525 11.824C8.01458 12.08 8.16925 12.3147 8.32925 12.528C8.48925 12.7307 8.68658 12.928 8.92125 13.12C9.15592 13.3013 9.43325 13.4827 9.75325 13.664C10.0839 13.8347 10.4839 14.0213 10.9533 14.224ZM10.2173 12.624C10.1106 12.5493 9.97192 12.4053 9.80125 12.192C9.64125 11.9787 9.47592 11.76 9.30525 11.536C9.14525 11.3013 9.00125 11.0933 8.87325 10.912C8.74525 10.7307 8.67058 10.6347 8.64925 10.624C8.81992 11.0187 9.03858 11.3813 9.30525 11.712C9.58258 12.032 9.87058 12.336 10.1693 12.624H10.2173Z" fill="white"/>
</g>
<defs>
<clipPath id="clip0_93_200">
<rect width="16" height="16" rx="2" fill="white"/>
</clipPath>
</defs>
</svg>
