<svg height="18" viewBox="0 0 18 18" fill="none" xmlns="http://www.w3.org/2000/svg">
<path fill-rule="evenodd" clip-rule="evenodd" d="M10.873 1.40796C10.3511 1.40792 9.85054 1.6151 9.48135 1.98396L1.70422 9.75433C1.52131 9.93708 1.37619 10.1541 1.27714 10.3929C1.17809 10.6317 1.12706 10.8877 1.12695 11.1463C1.12685 11.4048 1.17768 11.6609 1.27653 11.8998C1.37539 12.1387 1.52033 12.3558 1.7031 12.5387L5.73847 16.573C6.10764 16.9419 6.60819 17.1491 7.1301 17.1491C7.652 17.1491 8.15255 16.9419 8.52172 16.573L16.3 8.80371C16.4829 8.62063 16.6279 8.40329 16.7267 8.16412C16.8256 7.92494 16.8763 7.66863 16.876 7.40983V1.40796H10.873ZM10.6738 3.17758C10.7 3.15148 10.7311 3.1308 10.7652 3.1167C10.7994 3.10261 10.836 3.09539 10.873 3.09546H15.1885V7.40983C15.1885 7.44679 15.1813 7.4834 15.1672 7.51757C15.1531 7.55174 15.1324 7.58279 15.1063 7.60896L7.3281 15.3805C7.27538 15.433 7.20397 15.4625 7.12953 15.4625C7.05509 15.4625 6.98369 15.433 6.93097 15.3805L2.89672 11.3451C2.84417 11.2924 2.81465 11.221 2.81465 11.1465C2.81465 11.0721 2.84417 11.0007 2.89672 10.948L10.6738 3.17758V3.17758ZM12.376 7.03296C12.6743 7.03296 12.9605 6.91443 13.1715 6.70345C13.3824 6.49248 13.501 6.20633 13.501 5.90796C13.501 5.60959 13.3824 5.32344 13.1715 5.11246C12.9605 4.90149 12.6743 4.78296 12.376 4.78296C12.0776 4.78296 11.7915 4.90149 11.5805 5.11246C11.3695 5.32344 11.251 5.60959 11.251 5.90796C11.251 6.20633 11.3695 6.49248 11.5805 6.70345C11.7915 6.91443 12.0776 7.03296 12.376 7.03296V7.03296Z" fill="currentColor" opacity="0.5"/>
</svg>
