<svg width="136" height="27" viewBox="0 0 136 27" fill="none" xmlns="http://www.w3.org/2000/svg">
<path d="M19.608 1.856C19.7787 1.856 19.8747 1.96267 19.896 2.176C19.9387 2.368 19.96 2.56 19.96 2.752L19.928 2.976C19.9067 3.104 19.8747 3.27467 19.832 3.488C19.7893 3.68 19.736 3.89333 19.672 4.128C19.6293 4.36267 19.5653 4.576 19.48 4.768C19.1813 5.70667 18.936 6.63467 18.744 7.552C18.5733 8.46933 18.4347 9.39733 18.328 10.336C18.2213 11.2533 18.136 12.1813 18.072 13.12C18.008 14.0587 17.944 15.008 17.88 15.968C17.9653 15.0933 18.04 14.176 18.104 13.216C18.1893 12.256 18.296 11.296 18.424 10.336C18.552 9.35467 18.712 8.40533 18.904 7.488C19.1173 6.54933 19.4053 5.67467 19.768 4.864C19.448 6.912 19.1813 8.94933 18.968 10.976C18.776 13.0027 18.616 15.0507 18.488 17.12L18.104 17.312C18.104 18.6133 17.976 19.8613 17.72 21.056C17.464 22.2293 17.176 23.4453 16.856 24.704C16.7493 24.704 16.6213 24.704 16.472 24.704C16.344 24.7253 16.216 24.736 16.088 24.736C15.9813 24.736 15.832 24.704 15.64 24.64C15.448 24.576 15.2453 24.4907 15.032 24.384C14.8187 24.2987 14.5947 24.192 14.36 24.064C14.1467 23.9573 13.9653 23.8507 13.816 23.744C12.8987 23.1467 12.0773 22.4107 11.352 21.536C10.6267 20.64 9.976 19.6587 9.4 18.592C8.824 17.5253 8.312 16.4053 7.864 15.232C7.416 14.0373 6.98933 12.8427 6.584 11.648C6.2 10.4533 5.82667 9.29067 5.464 8.16C5.10133 7.008 4.73867 5.952 4.376 4.992L4.184 5.152C4.54667 6.21867 4.89867 7.38133 5.24 8.64C5.60267 9.87733 5.976 11.1467 6.36 12.448C6.76533 13.728 7.21333 14.9973 7.704 16.256C8.216 17.5147 8.80267 18.688 9.464 19.776C10.1467 20.864 10.936 21.8347 11.832 22.688C12.728 23.52 13.7733 24.1707 14.968 24.64C13.944 24.3627 13.0267 23.8933 12.216 23.232C11.4267 22.5493 10.7013 21.7493 10.04 20.832C9.4 19.9147 8.824 18.9227 8.312 17.856C7.82133 16.768 7.37333 15.6693 6.968 14.56C6.56267 13.4507 6.2 12.3627 5.88 11.296C5.56 10.2293 5.26133 9.25867 4.984 8.384C4.984 9.28 5.02667 10.1547 5.112 11.008C5.21867 11.8613 5.272 12.7253 5.272 13.6C5.272 15.072 5.31467 16.5547 5.4 18.048C5.48533 19.52 5.57067 20.992 5.656 22.464L4.952 22.592C4.78133 22.592 4.65333 22.4533 4.568 22.176C4.48267 21.8773 4.41867 21.5467 4.376 21.184C4.33333 20.8213 4.30133 20.48 4.28 20.16C4.28 19.8187 4.28 19.6053 4.28 19.52H3.896C3.896 19.6907 3.88533 20.032 3.864 20.544C3.864 21.0347 3.832 21.5467 3.768 22.08C3.704 22.6133 3.59733 23.0933 3.448 23.52C3.32 23.9467 3.128 24.16 2.872 24.16C2.70133 24.16 2.54133 23.8827 2.392 23.328C2.24267 22.752 2.09333 22.0053 1.944 21.088C1.79467 20.1493 1.656 19.0933 1.528 17.92C1.4 16.7253 1.29333 15.52 1.208 14.304C1.12267 13.088 1.048 11.904 0.984 10.752C0.941333 9.6 0.92 8.58667 0.92 7.712C0.92 6.58133 0.994667 5.46133 1.144 4.352C1.31467 3.24267 1.58133 2.144 1.944 1.056L5.464 0.383999C5.57067 0.533333 5.66667 0.672 5.752 0.799999C5.83733 0.906666 5.93333 1.024 6.04 1.152C6.65867 2.048 7.192 3.02933 7.64 4.096C8.088 5.14133 8.49333 6.24 8.856 7.392C9.21867 8.52267 9.56 9.67467 9.88 10.848C10.2213 12 10.5947 13.1307 11 14.24C11.4053 15.328 11.8747 16.3627 12.408 17.344C12.9413 18.3253 13.592 19.2 14.36 19.968C14.4453 19.3493 14.52 18.528 14.584 17.504C14.6693 16.48 14.7547 15.3813 14.84 14.208C14.9467 13.0347 15.0533 11.8613 15.16 10.688C15.2667 9.49333 15.3947 8.416 15.544 7.456C15.7147 6.47467 15.9067 5.68533 16.12 5.088C16.3547 4.46933 16.6213 4.16 16.92 4.16L17.112 4.288C16.664 5.61067 16.3547 6.944 16.184 8.288C16.0347 9.632 15.9173 10.9867 15.832 12.352C15.768 13.7173 15.6827 15.0827 15.576 16.448C15.4907 17.792 15.288 19.1253 14.968 20.448L15.16 20.544C15.1813 20.352 15.2027 20.16 15.224 19.968C15.2453 19.7547 15.2773 19.552 15.32 19.36C15.4907 18.1227 15.608 16.8853 15.672 15.648C15.7573 14.3893 15.8427 13.1307 15.928 11.872C16.0347 10.6133 16.1733 9.36533 16.344 8.128C16.536 6.89067 16.824 5.67467 17.208 4.48L17.528 4.704C17.656 4.61867 17.7733 4.42666 17.88 4.128C17.9867 3.808 18.1147 3.488 18.264 3.168C18.4133 2.82667 18.5947 2.528 18.808 2.272C19.0213 1.99467 19.288 1.856 19.608 1.856ZM16.344 24.448C16.5787 23.68 16.792 22.912 16.984 22.144C17.176 21.376 17.3253 20.5867 17.432 19.776C17.304 20.544 17.1333 21.3013 16.92 22.048C16.728 22.7733 16.536 23.5093 16.344 24.256C15.064 23.808 14.0187 23.3173 13.208 22.784C12.4187 22.2507 11.7467 21.6427 11.192 20.96C10.6587 20.2773 10.1787 19.5093 9.752 18.656C9.41067 17.9947 9.03733 17.2587 8.632 16.448C8.888 16.9813 9.112 17.472 9.304 17.92C9.60267 18.5387 9.89067 19.1147 10.168 19.648C10.4667 20.16 10.776 20.6293 11.096 21.056C11.416 21.4613 11.8107 21.856 12.28 22.24C12.7493 22.6027 13.304 22.9653 13.944 23.328C14.6053 23.6693 15.4053 24.0427 16.344 24.448ZM14.872 21.248C14.6587 21.0987 14.3813 20.8107 14.04 20.384C13.72 19.9573 13.3893 19.52 13.048 19.072C12.728 18.6027 12.44 18.1867 12.184 17.824C11.928 17.4613 11.7787 17.2693 11.736 17.248C12.0773 18.0373 12.5147 18.7627 13.048 19.424C13.6027 20.064 14.1787 20.672 14.776 21.248H14.872ZM36.339 13.6C35.507 13.3013 34.643 13.1093 33.747 13.024C32.8937 12.9173 32.019 12.8213 31.123 12.736C31.9337 12.864 32.7657 12.9813 33.619 13.088C34.515 13.1947 35.3577 13.4293 36.147 13.792C36.0617 13.8773 35.9763 13.952 35.891 14.016C35.8057 14.08 35.7203 14.112 35.635 14.112C35.3363 14.112 35.0483 14.08 34.771 14.016C34.4937 13.9307 34.195 13.888 33.875 13.888V13.504C33.7683 13.5253 33.619 13.536 33.427 13.536C32.8937 13.536 32.371 13.4613 31.859 13.312C31.347 13.1627 30.8243 13.088 30.291 13.088C30.0137 13.088 29.747 13.12 29.491 13.184V13.312C30.1737 13.3547 30.867 13.4293 31.571 13.536C32.2963 13.6213 33.0323 13.7387 33.779 13.888C33.0963 13.7813 32.3603 13.6853 31.571 13.6C30.803 13.5147 30.0777 13.472 29.395 13.472C29.1177 13.472 28.851 13.4827 28.595 13.504C28.3603 13.504 28.1257 13.5147 27.891 13.536C27.891 13.984 27.9017 14.5067 27.923 15.104C27.9443 15.7013 27.987 16.288 28.051 16.864C28.115 17.4187 28.1897 17.9093 28.275 18.336C28.3603 18.7627 28.467 19.04 28.595 19.168L28.883 19.744C29.139 20.5333 29.9923 20.928 31.443 20.928C31.763 20.928 32.147 20.8853 32.595 20.8C33.043 20.7147 33.491 20.6187 33.939 20.512C34.4083 20.384 34.8457 20.2773 35.251 20.192C35.6777 20.1067 36.0403 20.064 36.339 20.064C36.6377 20.064 36.8083 20.1067 36.851 20.192C36.8937 20.2773 36.915 20.3947 36.915 20.544C36.019 20.6507 35.155 20.8107 34.323 21.024C33.5977 21.216 32.8937 21.3653 32.211 21.472C32.8937 21.3653 33.587 21.2373 34.291 21.088C35.123 20.896 35.9657 20.7467 36.819 20.64C36.7763 20.768 36.755 20.8533 36.755 20.896C36.755 21.024 36.8083 21.1307 36.915 21.216L37.363 21.152C37.491 21.1307 37.619 21.12 37.747 21.12C37.875 21.0987 37.9923 21.0667 38.099 21.024C38.483 21.1307 38.7497 21.248 38.899 21.376C39.0697 21.504 39.155 21.6427 39.155 21.792C39.155 22.0693 39.0163 22.2613 38.739 22.368C38.483 22.4747 38.2377 22.6453 38.003 22.88H37.875C37.2563 22.88 36.659 22.9333 36.083 23.04C35.507 23.1253 34.931 23.2213 34.355 23.328C33.8003 23.4347 33.2243 23.5413 32.627 23.648C32.051 23.7333 31.4537 23.776 30.835 23.776H30.387H30.195C30.6003 23.8187 31.0377 23.84 31.507 23.84C32.1043 23.84 32.659 23.808 33.171 23.744C33.7043 23.68 34.2163 23.6053 34.707 23.52C35.1977 23.4347 35.667 23.36 36.115 23.296C36.5843 23.232 37.0537 23.2 37.523 23.2C37.1817 23.3707 36.7657 23.5413 36.275 23.712C35.7843 23.8613 35.2403 23.9893 34.643 24.096C34.0457 24.224 33.427 24.32 32.787 24.384C32.147 24.4693 31.5177 24.512 30.899 24.512C30.4723 24.512 30.0563 24.4907 29.651 24.448C29.2457 24.4053 28.8083 24.2667 28.339 24.032L28.307 23.68C28.0083 23.5733 27.6883 23.3813 27.347 23.104C27.027 22.8053 26.7283 22.496 26.451 22.176C26.1737 21.856 25.939 21.5573 25.747 21.28C25.555 21.0027 25.459 20.8213 25.459 20.736L25.363 20.448C25.171 20.0427 25.011 19.5947 24.883 19.104C24.7763 18.6133 24.691 18.1227 24.627 17.632C24.563 17.12 24.5097 16.6187 24.467 16.128C24.4243 15.6373 24.3923 15.1787 24.371 14.752C24.3283 14.048 24.2963 13.344 24.275 12.64C24.2537 11.9147 24.243 11.1893 24.243 10.464C24.243 9.73867 24.243 9.01333 24.243 8.288C24.2643 7.54133 24.275 6.79467 24.275 6.048H24.179C24.0723 6.85867 24.0083 7.63733 23.987 8.384C23.987 9.13067 23.987 9.87733 23.987 10.624V11.872C23.987 13.3653 24.0617 14.9227 24.211 16.544C24.3817 18.1653 24.7977 19.744 25.459 21.28C24.9683 20.448 24.659 19.6267 24.531 18.816C24.403 17.984 24.2857 17.216 24.179 16.512C24.051 15.5947 23.955 14.7093 23.891 13.856C23.8483 13.0027 23.827 12.128 23.827 11.232V10.56C23.827 9.32267 23.859 8.064 23.923 6.784C23.987 5.504 24.179 4.14933 24.499 2.72C24.371 2.72 24.307 2.656 24.307 2.528C24.307 2.4 24.371 2.21867 24.499 1.984C24.6483 1.74933 24.8297 1.52533 25.043 1.312C25.2563 1.07733 25.491 0.885332 25.747 0.735998C26.0243 0.565332 26.291 0.48 26.547 0.48H34.163C34.9523 0.629332 35.7203 0.757332 36.467 0.863998C37.235 0.949332 38.035 1.01333 38.867 1.056L38.835 1.792C38.835 1.92 38.771 2.02667 38.643 2.112C38.5363 2.176 38.2803 2.208 37.875 2.208C37.747 2.208 37.587 2.208 37.395 2.208C37.2243 2.18667 37.0323 2.16533 36.819 2.144V2.432C37.6937 2.624 38.3763 2.85867 38.867 3.136C39.379 3.41333 39.635 3.68 39.635 3.936C39.635 4.23467 39.347 4.416 38.771 4.48C38.2163 4.544 37.4697 4.576 36.531 4.576C35.3363 4.576 34.0563 4.576 32.691 4.576C31.347 4.55467 30.0457 4.49067 28.787 4.384H28.243C28.1363 5.19467 28.0617 6.02667 28.019 6.88C27.9763 7.73333 27.9443 8.608 27.923 9.504C28.2643 9.504 28.595 9.49333 28.915 9.472C29.2563 9.42933 29.6083 9.408 29.971 9.408C30.2697 9.408 30.611 9.44 30.995 9.504C31.4003 9.54667 31.8163 9.61067 32.243 9.696C32.691 9.78133 33.1283 9.888 33.555 10.016C34.003 10.1227 34.4083 10.24 34.771 10.368C34.835 10.3893 34.9097 10.4 34.995 10.4H35.539C35.8163 10.4 35.9977 10.4427 36.083 10.528C36.1897 10.6133 36.243 10.784 36.243 11.04C35.8803 11.04 35.539 11.0187 35.219 10.976C34.899 10.9333 34.5897 10.8907 34.291 10.848C34.5897 10.9547 34.899 11.04 35.219 11.104C35.539 11.1467 35.8803 11.1893 36.243 11.232C36.2003 11.3387 36.1683 11.4347 36.147 11.52C36.147 11.6053 36.147 11.68 36.147 11.744C36.3603 11.7867 36.499 11.8933 36.563 12.064C36.6483 12.2133 36.691 12.384 36.691 12.576C36.691 12.8533 36.627 13.0773 36.499 13.248C36.3923 13.3973 36.339 13.5147 36.339 13.6ZM25.075 17.216C25.1603 17.728 25.2563 18.2827 25.363 18.88C25.491 19.456 25.6723 20.032 25.907 20.608C26.163 21.1627 26.5043 21.6853 26.931 22.176C27.2723 22.5813 27.7203 22.9227 28.275 23.2C27.635 22.8587 27.1123 22.3893 26.707 21.792C26.2377 21.0667 25.8643 20.256 25.587 19.36C25.331 18.464 25.139 17.5147 25.011 16.512C24.9043 15.5093 24.819 14.5493 24.755 13.632C24.7763 14.208 24.8083 14.7947 24.851 15.392C24.8937 15.9893 24.9683 16.5973 25.075 17.216ZM32.915 10.688C33.2777 10.752 33.6617 10.8053 34.067 10.848C33.683 10.7413 33.3203 10.6667 32.979 10.624C32.6377 10.56 32.2963 10.4853 31.955 10.4C32.2323 10.528 32.5523 10.624 32.915 10.688ZM27.667 23.808C27.3897 23.68 27.1443 23.5307 26.931 23.36C26.7817 23.232 26.643 23.104 26.515 22.976C26.643 23.104 26.7923 23.2213 26.963 23.328C27.1977 23.4987 27.4323 23.6587 27.667 23.808ZM28.627 23.36L28.339 23.232L28.627 23.36ZM53.2413 17.184C53.5186 18.1013 53.7959 19.0293 54.0733 19.968C54.3719 20.9067 54.7239 21.7813 55.1293 22.592C55.5559 23.3813 56.0786 24.064 56.6973 24.64C57.3373 25.2373 58.1373 25.632 59.0972 25.824C58.1799 25.76 57.3906 25.4613 56.7292 24.928C56.0893 24.3947 55.5453 23.744 55.0973 22.976C54.6493 22.1867 54.2866 21.344 54.0093 20.448C53.7319 19.552 53.5293 18.7307 53.4013 17.984C53.3373 18.496 53.2306 19.0613 53.0813 19.68C52.9533 20.2987 52.7826 20.9173 52.5693 21.536C52.3559 22.1333 52.0999 22.7093 51.8013 23.264C51.5239 23.7973 51.1933 24.256 50.8093 24.64L48.0893 25.12C47.1719 24.608 46.3613 23.8827 45.6573 22.944C44.9746 21.984 44.3666 20.9067 43.8333 19.712C43.3213 18.496 42.8839 17.2053 42.5213 15.84C42.1799 14.4533 41.8919 13.088 41.6573 11.744C41.4226 10.4 41.2413 9.10933 41.1133 7.872C41.0066 6.61333 40.9426 5.51467 40.9213 4.576L41.7213 4.48C41.8279 4.544 41.9133 4.704 41.9773 4.96C42.0626 5.19467 42.1266 5.46133 42.1693 5.76C42.2119 6.05866 42.2439 6.34667 42.2653 6.624C42.2866 6.90133 42.2973 7.09333 42.2973 7.2L42.5853 7.104C42.5853 6.93333 42.5959 6.624 42.6173 6.176C42.6386 5.70667 42.6919 5.23733 42.7773 4.768C42.8626 4.27733 42.9799 3.85067 43.1293 3.488C43.2999 3.12533 43.5133 2.944 43.7693 2.944C43.8973 2.944 44.0253 3.27467 44.1533 3.936C44.3026 4.59733 44.4733 5.46133 44.6653 6.528C44.8573 7.57333 45.0706 8.768 45.3053 10.112C45.5399 11.4347 45.8173 12.768 46.1373 14.112C46.4786 15.4347 46.8626 16.7147 47.2893 17.952C47.7159 19.168 48.2066 20.192 48.7613 21.024C48.9533 20.0853 49.1986 19.072 49.4973 17.984C49.8173 16.8747 50.1266 15.8507 50.4253 14.912C50.7239 13.952 50.9799 13.152 51.1933 12.512C51.4279 11.872 51.5666 11.5413 51.6093 11.52L55.0333 11.424C55.3106 11.616 55.5666 11.968 55.8013 12.48C56.0359 12.9707 56.2599 13.5467 56.4733 14.208C56.6866 14.8693 56.8893 15.584 57.0813 16.352C57.2733 17.0987 57.4759 17.8347 57.6893 18.56C57.9026 19.264 58.1266 19.9253 58.3612 20.544C58.5959 21.1413 58.8519 21.6213 59.1293 21.984L59.4173 22.016C59.7373 22.016 60.0573 21.8133 60.3773 21.408C60.7186 21.0027 61.0493 20.4907 61.3693 19.872C61.7106 19.232 62.0306 18.5387 62.3293 17.792C62.6279 17.024 62.8946 16.288 63.1293 15.584C63.3853 14.8587 63.5986 14.208 63.7693 13.632C63.9399 13.0347 64.0679 12.5973 64.1533 12.32C64.2386 12 64.3239 11.5627 64.4093 11.008C64.5159 10.432 64.6226 9.81333 64.7293 9.152C64.8359 8.49067 64.9426 7.82933 65.0493 7.168C65.1773 6.48533 65.3053 5.87733 65.4333 5.344C65.5613 4.78933 65.6999 4.34133 65.8493 4C65.9986 3.63733 66.1586 3.456 66.3293 3.456L66.4893 3.488C65.8493 7.60533 64.9319 11.6587 63.7373 15.648C64.3986 13.6853 64.9426 11.7013 65.3693 9.696C65.8173 7.69067 66.2546 5.68533 66.6813 3.68L66.9373 3.936C66.9586 3.78667 67.0226 3.52 67.1293 3.136C67.2359 2.73067 67.3533 2.32533 67.4813 1.92C67.6306 1.49333 67.7906 1.12 67.9613 0.799999C68.1319 0.48 68.3026 0.32 68.4733 0.32C68.6013 0.32 68.7079 0.426666 68.7933 0.639999C68.8999 0.853333 68.9746 1.09867 69.0173 1.376C69.0599 1.65333 69.0919 1.93067 69.1133 2.208C69.1346 2.464 69.1453 2.63467 69.1453 2.72C69.1453 2.784 69.1133 2.92267 69.0493 3.136C68.9853 3.34933 68.9426 3.49867 68.9213 3.584C68.7506 4.30933 68.5373 5.312 68.2813 6.592C68.0466 7.872 67.7586 9.28 67.4173 10.816C67.0759 12.3307 66.6706 13.8773 66.2013 15.456C65.7746 16.9707 65.2839 18.368 64.7293 19.648C65.3053 18.368 65.8279 16.9813 66.2973 15.488C66.7879 13.9093 67.2146 12.3733 67.5773 10.88C67.9613 9.36533 68.2919 7.968 68.5693 6.688C68.8466 5.408 69.0706 4.40533 69.2413 3.68C69.2413 4.768 69.1559 5.89867 68.9853 7.072C68.8146 8.224 68.5906 9.38667 68.3133 10.56C68.0359 11.7333 67.7266 12.896 67.3853 14.048C67.0439 15.2 66.7133 16.288 66.3933 17.312L65.9133 17.504C65.7213 18.1867 65.4546 18.9973 65.1133 19.936C64.7719 20.8747 64.3346 21.7707 63.8013 22.624C63.2893 23.456 62.6813 24.16 61.9773 24.736C61.2946 25.3333 60.5159 25.632 59.6413 25.632C58.9799 25.632 58.3826 25.4827 57.8493 25.184C57.3373 24.9067 56.8679 24.5227 56.4412 24.032C56.0359 23.5627 55.6733 23.0187 55.3533 22.4C55.0546 21.7813 54.7773 21.1413 54.5213 20.48C54.2866 19.8187 54.0733 19.1573 53.8813 18.496C53.6893 17.8133 53.5186 17.1947 53.3693 16.64C53.3266 16.7893 53.2839 16.9707 53.2413 17.184ZM59.4173 25.088C60.0786 25.088 60.6973 24.8747 61.2733 24.448C61.8706 24.0427 62.4253 23.488 62.9373 22.784C62.3826 23.3387 61.8279 23.8187 61.2733 24.224C60.7186 24.6293 60.0999 24.832 59.4173 24.832C58.8626 24.832 58.3506 24.672 57.8813 24.352C57.4333 24.0533 57.0173 23.6587 56.6333 23.168C56.2706 22.656 55.9399 22.0907 55.6413 21.472C55.3639 20.832 55.1079 20.2027 54.8733 19.584C54.6386 18.9653 54.4359 18.3787 54.2653 17.824C54.0946 17.248 53.9453 16.768 53.8173 16.384C53.9026 16.896 54.0199 17.472 54.1693 18.112C54.3399 18.7307 54.5319 19.36 54.7453 20C54.9586 20.64 55.2039 21.2693 55.4813 21.888C55.7799 22.4853 56.1213 23.0293 56.5053 23.52C56.8893 23.9893 57.3159 24.3627 57.7853 24.64C58.2759 24.9387 58.8199 25.088 59.4173 25.088ZM59.7693 25.792C60.4946 25.664 61.1559 25.3867 61.7533 24.96C62.3506 24.5547 62.8839 24.064 63.3533 23.488C63.8439 22.912 64.2599 22.2827 64.6013 21.6C64.7933 21.2373 64.9746 20.8747 65.1453 20.512C64.9959 20.896 64.8253 21.2907 64.6333 21.696C64.2919 22.4213 63.8866 23.0933 63.4173 23.712C62.9479 24.3093 62.4039 24.8 61.7853 25.184C61.1879 25.5893 60.5159 25.792 59.7693 25.792ZM59.0972 22.624C58.8413 22.56 58.5853 22.3573 58.3293 22.016C58.0946 21.6747 57.9133 21.3227 57.7853 20.96C57.8493 21.152 57.9239 21.3547 58.0093 21.568C58.1159 21.7813 58.2333 21.984 58.3612 22.176C58.5106 22.368 58.6706 22.528 58.8413 22.656C59.0119 22.7627 59.2039 22.816 59.4173 22.816C59.7586 22.816 60.0893 22.6667 60.4093 22.368C60.7506 22.048 61.0599 21.664 61.3373 21.216C61.6359 20.768 61.9026 20.2987 62.1373 19.808C62.3719 19.296 62.5746 18.8373 62.7453 18.432C62.5746 18.816 62.3613 19.264 62.1053 19.776C61.8706 20.2667 61.6039 20.7253 61.3053 21.152C61.0279 21.5787 60.7186 21.9413 60.3773 22.24C60.0573 22.5387 59.7373 22.688 59.4173 22.688C59.3319 22.688 59.2253 22.6667 59.0972 22.624ZM53.1773 18.656C53.1986 18.5067 53.2199 18.368 53.2413 18.24C53.2626 18.0907 53.2946 17.9413 53.3373 17.792L53.2093 17.408C53.1666 17.6213 53.1239 17.8347 53.0813 18.048C53.0599 18.24 53.0279 18.4427 52.9853 18.656H53.1773ZM65.2733 20.192C65.2306 20.2987 65.1879 20.4053 65.1453 20.512C65.1879 20.384 65.2306 20.2773 65.2733 20.192ZM65.4013 19.904C65.3586 20.0107 65.3159 20.1067 65.2733 20.192C65.3159 20.0853 65.3586 19.9893 65.4013 19.904ZM65.4973 19.68C65.4546 19.744 65.4226 19.8187 65.4013 19.904C65.4226 19.8187 65.4546 19.744 65.4973 19.68ZM91.539 3.776C89.8963 3.776 88.2643 3.82933 86.643 3.936C85.0217 4.02133 83.4003 4.064 81.779 4.064C82.0563 4.08533 82.323 4.10667 82.579 4.128C82.8563 4.128 83.1443 4.128 83.443 4.128C84.4243 4.128 85.395 4.11733 86.355 4.096C87.3363 4.05333 88.3177 4.032 89.299 4.032H90.259C90.579 4.032 90.9097 4.04267 91.251 4.064C90.9523 4.256 90.6323 4.39467 90.291 4.48C89.971 4.56533 89.6403 4.62933 89.299 4.672C88.979 4.69333 88.6377 4.704 88.275 4.704C87.9337 4.704 87.5923 4.71467 87.251 4.736L86.963 4.352C86.4723 4.43733 85.9817 4.49067 85.491 4.512C85.0003 4.53333 84.5097 4.544 84.019 4.544L81.171 4.512L81.203 4.8L86.547 4.768C84.7337 4.87467 82.9523 4.93867 81.203 4.96C81.2243 5.23733 81.2457 5.51467 81.267 5.792C81.2883 6.048 81.3203 6.31467 81.363 6.592L80.979 6.688C81.1497 7.41333 81.267 8.21333 81.331 9.088C81.4163 9.94133 81.491 10.816 81.555 11.712C81.619 12.608 81.7043 13.4933 81.811 14.368C81.939 15.2213 82.1203 16 82.355 16.704L82.451 16.608C82.323 15.8827 82.2057 15.104 82.099 14.272C81.9923 13.4187 81.8857 12.5547 81.779 11.68C81.6937 10.784 81.6083 9.90933 81.523 9.056C81.459 8.24533 81.4057 7.488 81.363 6.784C81.4483 7.91467 81.5763 9.09867 81.747 10.336C81.939 11.5947 82.1417 12.8747 82.355 14.176C82.5683 15.456 82.771 16.7253 82.963 17.984C83.1763 19.2427 83.3683 20.448 83.539 21.6C83.5817 21.9627 83.635 22.3573 83.699 22.784C83.763 23.1893 83.795 23.6053 83.795 24.032V24.416C83.795 24.5653 83.7737 24.704 83.731 24.832C83.5817 24.832 83.4323 24.8533 83.283 24.896C83.155 24.96 83.0163 24.992 82.867 24.992C82.6323 24.992 82.483 24.8747 82.419 24.64C82.3763 24.4053 82.355 24.2027 82.355 24.032H82.067C82.0457 24.16 82.003 24.32 81.939 24.512C81.8963 24.7253 81.8217 24.928 81.715 25.12C81.6297 25.312 81.5123 25.472 81.363 25.6C81.235 25.728 81.0857 25.792 80.915 25.792C80.7017 25.792 80.5097 25.6427 80.339 25.344C80.1683 25.0453 80.0083 24.6613 79.859 24.192C79.731 23.7227 79.6137 23.2107 79.507 22.656C79.4217 22.08 79.3363 21.536 79.251 21.024C79.187 20.4907 79.123 20.0107 79.059 19.584C79.0163 19.1573 78.9737 18.848 78.931 18.656C78.7177 17.76 78.515 16.7787 78.323 15.712C78.1523 14.6453 78.003 13.568 77.875 12.48C77.747 11.392 77.6403 10.3147 77.555 9.248C77.491 8.16 77.459 7.14667 77.459 6.208C77.459 6.05867 77.459 5.92 77.459 5.792C77.4803 5.64267 77.491 5.49333 77.491 5.344V5.152C77.491 5.06667 77.4803 4.98133 77.459 4.896C76.2003 4.87467 75.0057 4.82133 73.875 4.736C72.7443 4.62933 71.4857 4.49067 70.099 4.32C70.1203 4.192 70.131 4.05333 70.131 3.904C70.131 3.75467 70.1417 3.616 70.163 3.488C70.2057 3.36 70.259 3.25333 70.323 3.168C70.4083 3.06133 70.547 3.008 70.739 3.008C70.867 3.008 71.0163 3.02933 71.187 3.072L71.283 2.784C71.027 2.67733 70.7283 2.50667 70.387 2.272C70.0457 2.03733 69.875 1.76 69.875 1.44C69.875 1.248 69.9497 1.10933 70.099 1.024C70.2483 0.917332 70.4297 0.842665 70.643 0.799999C70.8563 0.757332 71.0697 0.735998 71.283 0.735998C71.4963 0.714665 71.6563 0.703999 71.763 0.703999C72.531 0.703999 73.2883 0.746665 74.035 0.831999C74.803 0.917332 75.571 0.959999 76.339 0.959999C78.2803 0.959999 80.211 0.991999 82.131 1.056C84.051 1.09867 85.9817 1.12 87.923 1.12C88.307 1.12 88.6803 1.06667 89.043 0.959999C89.427 0.853333 89.811 0.799999 90.195 0.799999C90.3443 0.799999 90.4723 0.842666 90.579 0.927999C90.707 1.01333 90.771 1.14133 90.771 1.312C90.195 1.41866 89.6083 1.504 89.011 1.568C88.4777 1.61067 87.9337 1.65333 87.379 1.696C87.9337 1.696 88.4777 1.67467 89.011 1.632C89.587 1.58933 90.1737 1.54667 90.771 1.504V2.112L91.347 2.016C91.5177 2.05866 91.6777 2.144 91.827 2.272C91.9763 2.37867 92.051 2.53867 92.051 2.752C92.051 2.944 91.9977 3.136 91.891 3.328C91.7843 3.49867 91.667 3.648 91.539 3.776ZM80.307 4.96C80.3497 5.57867 80.403 6.26133 80.467 7.008C80.5523 7.75467 80.6377 8.512 80.723 9.28C80.8083 10.048 80.8937 10.8053 80.979 11.552C81.0857 12.2773 81.1817 12.9493 81.267 13.568C81.203 12.9707 81.1283 12.2987 81.043 11.552C80.979 10.8053 80.915 10.048 80.851 9.28C80.787 8.512 80.723 7.75467 80.659 7.008C80.6163 6.26133 80.595 5.57867 80.595 4.96H80.307ZM86.131 1.696H84.371C83.8377 1.696 83.3043 1.68533 82.771 1.664C83.027 1.70667 83.2723 1.74933 83.507 1.792C83.8057 1.856 84.1363 1.888 84.499 1.888C84.755 1.888 85.0217 1.86667 85.299 1.824C85.5977 1.78133 85.875 1.73867 86.131 1.696ZM80.435 4.8H80.595V4.512H80.435V4.8ZM99.6498 25.984C100.588 26.2827 101.548 26.432 102.53 26.432C103.639 26.432 104.674 26.2613 105.634 25.92C106.594 25.5787 107.468 25.1093 108.258 24.512C109.047 23.9147 109.74 23.2213 110.338 22.432C110.764 21.8773 111.138 21.28 111.458 20.64C111.18 21.2373 110.86 21.824 110.498 22.4C109.986 23.2107 109.346 23.9253 108.578 24.544C107.831 25.1627 106.967 25.6533 105.986 26.016C105.004 26.4 103.895 26.592 102.658 26.592H102.242C100.471 26.592 98.9351 26.1973 97.6338 25.408C96.3324 24.6187 95.2551 23.616 94.4018 22.4C93.5484 21.1627 92.9084 19.7867 92.4818 18.272C92.0764 16.7573 91.8738 15.264 91.8738 13.792C91.8738 13.1733 91.9058 12.5227 91.9698 11.84C92.0338 11.136 92.1724 10.432 92.3858 9.728C92.5991 9.024 92.8978 8.34133 93.2818 7.68C93.6871 6.99733 94.2311 6.37867 94.9138 5.824C95.4684 5.376 96.0658 5.00267 96.7058 4.704C97.3671 4.384 98.0178 4.20267 98.6578 4.16C98.5938 4.20267 98.5618 4.24533 98.5618 4.288C98.5618 4.37333 98.6044 4.46933 98.6898 4.576C98.7964 4.66133 98.8498 4.75733 98.8498 4.864V4.928C98.8498 5.01333 98.7964 5.07733 98.6898 5.12C98.6044 5.16267 98.4551 5.22667 98.2418 5.312C98.0284 5.376 97.7511 5.48267 97.4098 5.632C97.0684 5.78133 96.6631 6.00533 96.1938 6.304C96.3218 6.432 96.3858 6.528 96.3858 6.592C96.7911 6.37867 97.1644 6.22933 97.5058 6.144C97.8471 6.05867 98.1671 6.016 98.4658 6.016C99.0844 6.016 99.5324 6.12267 99.8098 6.336C100.087 6.54933 100.226 6.70933 100.226 6.816C100.226 6.98667 100.087 7.12533 99.8098 7.232C99.5538 7.33867 99.2444 7.47733 98.8818 7.648C98.5404 7.79733 98.1778 8.01067 97.7938 8.288C97.4098 8.544 97.1111 8.928 96.8978 9.44C96.5564 9.952 96.2898 10.592 96.0978 11.36C95.9271 12.128 95.8418 12.9067 95.8418 13.696C95.8418 15.04 96.0018 16.2667 96.3218 17.376C96.6418 18.4853 97.0898 19.4453 97.6658 20.256C98.2631 21.0667 98.9778 21.696 99.8098 22.144C100.663 22.592 101.623 22.816 102.69 22.816C103.714 22.816 104.631 22.56 105.442 22.048C106.274 21.536 106.978 20.8427 107.554 19.968C108.13 19.072 108.567 18.048 108.866 16.896C109.164 15.7227 109.314 14.4747 109.314 13.152C109.314 12.512 109.271 11.8827 109.186 11.264C109.122 10.624 108.972 10.016 108.738 9.44C108.524 8.864 108.215 8.32 107.81 7.808C107.426 7.296 106.914 6.82667 106.274 6.4C105.463 5.97333 104.802 5.67467 104.29 5.504C103.778 5.312 103.522 5.13067 103.522 4.96C103.522 4.896 103.564 4.82133 103.65 4.736C104.716 4.97067 105.676 5.35467 106.53 5.888C107.319 6.37867 107.98 7.01867 108.514 7.808C107.938 6.93333 107.287 6.26133 106.562 5.792C105.772 5.25867 104.834 4.84267 103.746 4.544C103.852 4.43733 103.906 4.34133 103.906 4.256C103.906 4.17067 103.746 4.096 103.426 4.032C103.127 3.968 102.796 3.89333 102.434 3.808C102.071 3.72267 101.73 3.616 101.41 3.488C101.111 3.36 100.962 3.2 100.962 3.008C100.962 2.77333 101.154 2.60266 101.538 2.496C101.922 2.38933 102.391 2.26133 102.946 2.112C103.095 2.112 103.234 2.13333 103.362 2.176C103.511 2.21867 103.639 2.26133 103.746 2.304C104.791 2.496 105.783 2.83733 106.722 3.328C107.682 3.81867 108.535 4.448 109.282 5.216C110.05 5.984 110.69 6.90133 111.202 7.968C111.714 9.01333 112.044 10.1973 112.194 11.52C112.087 10.2613 111.799 9.12 111.33 8.096C110.882 7.05067 110.284 6.12267 109.538 5.312C108.812 4.50133 107.959 3.81867 106.978 3.264C105.996 2.70933 104.951 2.28267 103.842 1.984C104.823 1.984 105.794 2.18667 106.754 2.592C107.735 2.976 108.631 3.552 109.442 4.32C110.252 5.06667 110.956 5.99467 111.554 7.104C112.151 8.21333 112.578 9.48267 112.834 10.912C112.791 10.912 112.727 10.9333 112.642 10.976C112.556 10.9973 112.492 11.008 112.45 11.008C112.642 12.096 112.738 13.152 112.738 14.176C112.738 15.6693 112.503 17.1307 112.034 18.56C111.586 19.9893 110.924 21.2693 110.05 22.4C109.196 23.5093 108.14 24.4053 106.882 25.088C105.623 25.792 104.183 26.144 102.562 26.144C101.602 26.144 100.663 26.0053 99.7458 25.728C98.8284 25.4507 97.9751 25.0773 97.1858 24.608C97.2284 24.6507 97.2498 24.6933 97.2498 24.736C97.2498 24.7787 97.1964 24.8 97.0898 24.8C97.8791 25.312 98.7324 25.7067 99.6498 25.984ZM112.258 14.528C112.151 15.36 111.991 16.224 111.778 17.12C111.586 17.9947 111.308 18.8587 110.946 19.712C110.604 20.5653 110.167 21.3653 109.634 22.112C109.1 22.8373 108.471 23.4667 107.746 24C108.471 23.488 109.111 22.88 109.666 22.176C110.22 21.4507 110.679 20.6613 111.042 19.808C111.426 18.9547 111.714 18.0587 111.906 17.12C112.119 16.16 112.247 15.2107 112.29 14.272C112.268 14.336 112.258 14.4213 112.258 14.528ZM109.698 16.384C109.527 17.1947 109.271 17.984 108.93 18.752C108.588 19.4987 108.151 20.1707 107.618 20.768C108.172 20.192 108.62 19.5307 108.962 18.784C109.303 18.0373 109.548 17.2373 109.698 16.384ZM112.994 13.568C112.994 13.9307 112.972 14.304 112.93 14.688C112.908 15.0507 112.876 15.424 112.834 15.808C112.834 15.4453 112.855 15.04 112.898 14.592C112.94 14.1227 112.962 13.6107 112.962 13.056V12.48C112.983 12.6507 112.994 12.832 112.994 13.024V13.568ZM109.698 16.384C109.804 15.9147 109.879 15.4453 109.922 14.976C109.986 14.4853 110.018 13.9947 110.018 13.504C110.018 12.9707 109.986 12.4267 109.922 11.872C109.943 12.1067 109.954 12.3307 109.954 12.544C109.975 12.7573 109.986 12.9813 109.986 13.216C109.986 14.304 109.89 15.36 109.698 16.384ZM112.834 16L112.546 17.568C112.439 17.952 112.332 18.336 112.226 18.72C112.119 19.0827 111.991 19.4453 111.842 19.808C112.076 19.1467 112.268 18.4853 112.418 17.824C112.588 17.1627 112.727 16.512 112.834 15.872V16ZM97.1218 24.864C97.1218 24.8427 97.1111 24.8213 97.0898 24.8C97.0898 24.8213 97.1004 24.8427 97.1218 24.864ZM111.842 19.808C111.799 19.8933 111.767 19.968 111.746 20.032C111.767 19.968 111.799 19.8933 111.842 19.808ZM111.49 20.576C111.532 20.512 111.564 20.448 111.586 20.384C111.564 20.448 111.532 20.512 111.49 20.576ZM108.706 8.064C108.684 8.02133 108.652 7.97867 108.61 7.936C108.631 7.97867 108.663 8.02133 108.706 8.064ZM111.746 20.032C111.703 20.1387 111.66 20.2453 111.618 20.352C111.66 20.2453 111.703 20.1387 111.746 20.032ZM134.889 1.856C135.06 1.856 135.156 1.96267 135.177 2.176C135.22 2.368 135.241 2.56 135.241 2.752L135.209 2.976C135.188 3.104 135.156 3.27467 135.113 3.488C135.071 3.68 135.017 3.89333 134.953 4.128C134.911 4.36267 134.847 4.576 134.761 4.768C134.463 5.70667 134.217 6.63467 134.025 7.552C133.855 8.46933 133.716 9.39733 133.609 10.336C133.503 11.2533 133.417 12.1813 133.353 13.12C133.289 14.0587 133.225 15.008 133.161 15.968C133.247 15.0933 133.321 14.176 133.385 13.216C133.471 12.256 133.577 11.296 133.705 10.336C133.833 9.35467 133.993 8.40533 134.185 7.488C134.399 6.54933 134.687 5.67467 135.049 4.864C134.729 6.912 134.463 8.94933 134.249 10.976C134.057 13.0027 133.897 15.0507 133.769 17.12L133.385 17.312C133.385 18.6133 133.257 19.8613 133.001 21.056C132.745 22.2293 132.457 23.4453 132.137 24.704C132.031 24.704 131.903 24.704 131.753 24.704C131.625 24.7253 131.497 24.736 131.369 24.736C131.263 24.736 131.113 24.704 130.921 24.64C130.729 24.576 130.527 24.4907 130.313 24.384C130.1 24.2987 129.876 24.192 129.641 24.064C129.428 23.9573 129.247 23.8507 129.097 23.744C128.18 23.1467 127.359 22.4107 126.633 21.536C125.908 20.64 125.257 19.6587 124.681 18.592C124.105 17.5253 123.593 16.4053 123.145 15.232C122.697 14.0373 122.271 12.8427 121.865 11.648C121.481 10.4533 121.108 9.29067 120.745 8.16C120.383 7.008 120.02 5.952 119.657 4.992L119.465 5.152C119.828 6.21867 120.18 7.38133 120.521 8.64C120.884 9.87733 121.257 11.1467 121.641 12.448C122.047 13.728 122.495 14.9973 122.985 16.256C123.497 17.5147 124.084 18.688 124.745 19.776C125.428 20.864 126.217 21.8347 127.113 22.688C128.009 23.52 129.055 24.1707 130.249 24.64C129.225 24.3627 128.308 23.8933 127.497 23.232C126.708 22.5493 125.983 21.7493 125.321 20.832C124.681 19.9147 124.105 18.9227 123.593 17.856C123.103 16.768 122.655 15.6693 122.249 14.56C121.844 13.4507 121.481 12.3627 121.161 11.296C120.841 10.2293 120.543 9.25867 120.265 8.384C120.265 9.28 120.308 10.1547 120.393 11.008C120.5 11.8613 120.553 12.7253 120.553 13.6C120.553 15.072 120.596 16.5547 120.681 18.048C120.767 19.52 120.852 20.992 120.937 22.464L120.233 22.592C120.063 22.592 119.935 22.4533 119.849 22.176C119.764 21.8773 119.7 21.5467 119.657 21.184C119.615 20.8213 119.583 20.48 119.561 20.16C119.561 19.8187 119.561 19.6053 119.561 19.52H119.177C119.177 19.6907 119.167 20.032 119.145 20.544C119.145 21.0347 119.113 21.5467 119.049 22.08C118.985 22.6133 118.879 23.0933 118.729 23.52C118.601 23.9467 118.409 24.16 118.153 24.16C117.983 24.16 117.823 23.8827 117.673 23.328C117.524 22.752 117.375 22.0053 117.225 21.088C117.076 20.1493 116.937 19.0933 116.809 17.92C116.681 16.7253 116.575 15.52 116.489 14.304C116.404 13.088 116.329 11.904 116.265 10.752C116.223 9.6 116.201 8.58667 116.201 7.712C116.201 6.58133 116.276 5.46133 116.425 4.352C116.596 3.24267 116.863 2.144 117.225 1.056L120.745 0.383999C120.852 0.533333 120.948 0.672 121.033 0.799999C121.119 0.906666 121.215 1.024 121.321 1.152C121.94 2.048 122.473 3.02933 122.921 4.096C123.369 5.14133 123.775 6.24 124.137 7.392C124.5 8.52267 124.841 9.67467 125.161 10.848C125.503 12 125.876 13.1307 126.281 14.24C126.687 15.328 127.156 16.3627 127.689 17.344C128.223 18.3253 128.873 19.2 129.641 19.968C129.727 19.3493 129.801 18.528 129.865 17.504C129.951 16.48 130.036 15.3813 130.121 14.208C130.228 13.0347 130.335 11.8613 130.441 10.688C130.548 9.49333 130.676 8.416 130.825 7.456C130.996 6.47467 131.188 5.68533 131.401 5.088C131.636 4.46933 131.903 4.16 132.201 4.16L132.393 4.288C131.945 5.61067 131.636 6.944 131.465 8.288C131.316 9.632 131.199 10.9867 131.113 12.352C131.049 13.7173 130.964 15.0827 130.857 16.448C130.772 17.792 130.569 19.1253 130.249 20.448L130.441 20.544C130.463 20.352 130.484 20.16 130.505 19.968C130.527 19.7547 130.559 19.552 130.601 19.36C130.772 18.1227 130.889 16.8853 130.953 15.648C131.039 14.3893 131.124 13.1307 131.209 11.872C131.316 10.6133 131.455 9.36533 131.625 8.128C131.817 6.89067 132.105 5.67467 132.489 4.48L132.809 4.704C132.937 4.61867 133.055 4.42666 133.161 4.128C133.268 3.808 133.396 3.488 133.545 3.168C133.695 2.82667 133.876 2.528 134.089 2.272C134.303 1.99467 134.569 1.856 134.889 1.856ZM131.625 24.448C131.86 23.68 132.073 22.912 132.265 22.144C132.457 21.376 132.607 20.5867 132.713 19.776C132.585 20.544 132.415 21.3013 132.201 22.048C132.009 22.7733 131.817 23.5093 131.625 24.256C130.345 23.808 129.3 23.3173 128.489 22.784C127.7 22.2507 127.028 21.6427 126.473 20.96C125.94 20.2773 125.46 19.5093 125.033 18.656C124.692 17.9947 124.319 17.2587 123.913 16.448C124.169 16.9813 124.393 17.472 124.585 17.92C124.884 18.5387 125.172 19.1147 125.449 19.648C125.748 20.16 126.057 20.6293 126.377 21.056C126.697 21.4613 127.092 21.856 127.561 22.24C128.031 22.6027 128.585 22.9653 129.225 23.328C129.887 23.6693 130.687 24.0427 131.625 24.448ZM130.153 21.248C129.94 21.0987 129.663 20.8107 129.321 20.384C129.001 19.9573 128.671 19.52 128.329 19.072C128.009 18.6027 127.721 18.1867 127.465 17.824C127.209 17.4613 127.06 17.2693 127.017 17.248C127.359 18.0373 127.796 18.7627 128.329 19.424C128.884 20.064 129.46 20.672 130.057 21.248H130.153Z" fill="#E547FF"/>
</svg>
